<svg xmlns="http://www.w3.org/2000/svg" viewBox="0 0 800 430" role="img" aria-labelledby="title">
<title id="title">Pojedynczy szczyt ze śladami narciarzy</title>
<defs>
  <clipPath id="mountain-shape"><path d="M45 397 399 30 755 397Z"/></clipPath>
</defs>
<!-- Jeden wyraźny, jasny szczyt na ciemnym tle sekcji -->
<path d="M45 397 399 30 755 397Z" fill="#f3f0e5" stroke="#111" stroke-width="7" stroke-linejoin="round"/>
<!-- Geometryczna ściana podkreśla kształt pojedynczej góry -->
<path d="m399 30 356 367H548L355 145Z" fill="#ded8cc" clip-path="url(#mountain-shape)"/>
<!-- Śnieżna korona -->
<path d="m399 30-65 68 43-12 22 24 24-23 41 15z" fill="#fffdf7" stroke="#111" stroke-width="4" stroke-linejoin="round"/>
<!-- Różowa linia zjazdu i równoległy ślad nart -->
<g clip-path="url(#mountain-shape)" fill="none" stroke="#ee0089" stroke-linecap="round" stroke-linejoin="round">
 <path d="M395 96C343 119 337 151 389 173S471 207 419 235 309 267 322 307 275 359 208 389" stroke-width="6"/>
 <path d="M414 103C362 126 356 158 408 180S490 214 438 242 328 274 341 314 294 366 227 396" stroke-width="6"/>
</g>
<!-- Żółta linia zjazdu i równoległy ślad nart -->
<g clip-path="url(#mountain-shape)" fill="none" stroke="#ffe600" stroke-linecap="round" stroke-linejoin="round">
 <path d="M407 98C462 121 471 150 430 178S363 221 414 250 526 282 507 319 549 363 622 389" stroke-width="6"/>
 <path d="M426 105C481 128 490 157 449 185S382 228 433 257 545 289 526 326 568 370 641 396" stroke-width="6"/>
</g>
<!-- Drobne ślady śniegu przy podstawie -->
<path d="m126 405 42-6m474 5 38 2" stroke="#f3f0e5" stroke-width="5" stroke-linecap="round" opacity=".8"/>
</svg>
